<?xml version="1.0" standalone="yes"?>
<svg xmlns="http://www.w3.org/2000/svg" version="1.1" width="410" height="410">
<rect x="0" y="0" width="410" height="410" style="fill:#ffffff;shape-rendering:crispEdges;"/>
<rect x="0" y="0" width="16.4" height="16.4" style="fill:#000000;shape-rendering:crispEdges;"/>
<rect x="16.4" y="0" width="16.4" height="16.4" style="fill:#000000;shape-rendering:crispEdges;"/>
<rect x="32.8" y="0" width="16.4" height="16.4" style="fill:#000000;shape-rendering:crispEdges;"/>
<rect x="49.199999999999996" y="0" width="16.4" height="16.4" style="fill:#000000;shape-rendering:crispEdges;"/>
<rect x="65.6" y="0" width="16.4" height="16.4" style="fill:#000000;shape-rendering:crispEdges;"/>
<rect x="82" y="0" width="16.4" height="16.4" style="fill:#000000;shape-rendering:crispEdges;"/>
<rect x="98.39999999999999" y="0" width="16.4" height="16.4" style="fill:#000000;shape-rendering:crispEdges;"/>
<rect x="131.2" y="0" width="16.4" height="16.4" style="fill:#000000;shape-rendering:crispEdges;"/>
<rect x="147.6" y="0" width="16.4" height="16.4" style="fill:#000000;shape-rendering:crispEdges;"/>
<rect x="164" y="0" width="16.4" height="16.4" style="fill:#000000;shape-rendering:crispEdges;"/>
<rect x="196.79999999999998" y="0" width="16.4" height="16.4" style="fill:#000000;shape-rendering:crispEdges;"/>
<rect x="229.59999999999997" y="0" width="16.4" height="16.4" style="fill:#000000;shape-rendering:crispEdges;"/>
<rect x="262.4" y="0" width="16.4" height="16.4" style="fill:#000000;shape-rendering:crispEdges;"/>
<rect x="295.2" y="0" width="16.4" height="16.4" style="fill:#000000;shape-rendering:crispEdges;"/>
<rect x="311.59999999999997" y="0" width="16.4" height="16.4" style="fill:#000000;shape-rendering:crispEdges;"/>
<rect x="328" y="0" width="16.4" height="16.4" style="fill:#000000;shape-rendering:crispEdges;"/>
<rect x="344.4" y="0" width="16.4" height="16.4" style="fill:#000000;shape-rendering:crispEdges;"/>
<rect x="360.79999999999995" y="0" width="16.4" height="16.4" style="fill:#000000;shape-rendering:crispEdges;"/>
<rect x="377.2" y="0" width="16.4" height="16.4" style="fill:#000000;shape-rendering:crispEdges;"/>
<rect x="393.59999999999997" y="0" width="16.4" height="16.4" style="fill:#000000;shape-rendering:crispEdges;"/>
<rect x="0" y="16.4" width="16.4" height="16.4" style="fill:#000000;shape-rendering:crispEdges;"/>
<rect x="98.39999999999999" y="16.4" width="16.4" height="16.4" style="fill:#000000;shape-rendering:crispEdges;"/>
<rect x="131.2" y="16.4" width="16.4" height="16.4" style="fill:#000000;shape-rendering:crispEdges;"/>
<rect x="164" y="16.4" width="16.4" height="16.4" style="fill:#000000;shape-rendering:crispEdges;"/>
<rect x="180.39999999999998" y="16.4" width="16.4" height="16.4" style="fill:#000000;shape-rendering:crispEdges;"/>
<rect x="229.59999999999997" y="16.4" width="16.4" height="16.4" style="fill:#000000;shape-rendering:crispEdges;"/>
<rect x="262.4" y="16.4" width="16.4" height="16.4" style="fill:#000000;shape-rendering:crispEdges;"/>
<rect x="295.2" y="16.4" width="16.4" height="16.4" style="fill:#000000;shape-rendering:crispEdges;"/>
<rect x="393.59999999999997" y="16.4" width="16.4" height="16.4" style="fill:#000000;shape-rendering:crispEdges;"/>
<rect x="0" y="32.8" width="16.4" height="16.4" style="fill:#000000;shape-rendering:crispEdges;"/>
<rect x="32.8" y="32.8" width="16.4" height="16.4" style="fill:#000000;shape-rendering:crispEdges;"/>
<rect x="49.199999999999996" y="32.8" width="16.4" height="16.4" style="fill:#000000;shape-rendering:crispEdges;"/>
<rect x="65.6" y="32.8" width="16.4" height="16.4" style="fill:#000000;shape-rendering:crispEdges;"/>
<rect x="98.39999999999999" y="32.8" width="16.4" height="16.4" style="fill:#000000;shape-rendering:crispEdges;"/>
<rect x="131.2" y="32.8" width="16.4" height="16.4" style="fill:#000000;shape-rendering:crispEdges;"/>
<rect x="196.79999999999998" y="32.8" width="16.4" height="16.4" style="fill:#000000;shape-rendering:crispEdges;"/>
<rect x="229.59999999999997" y="32.8" width="16.4" height="16.4" style="fill:#000000;shape-rendering:crispEdges;"/>
<rect x="262.4" y="32.8" width="16.4" height="16.4" style="fill:#000000;shape-rendering:crispEdges;"/>
<rect x="295.2" y="32.8" width="16.4" height="16.4" style="fill:#000000;shape-rendering:crispEdges;"/>
<rect x="328" y="32.8" width="16.4" height="16.4" style="fill:#000000;shape-rendering:crispEdges;"/>
<rect x="344.4" y="32.8" width="16.4" height="16.4" style="fill:#000000;shape-rendering:crispEdges;"/>
<rect x="360.79999999999995" y="32.8" width="16.4" height="16.4" style="fill:#000000;shape-rendering:crispEdges;"/>
<rect x="393.59999999999997" y="32.8" width="16.4" height="16.4" style="fill:#000000;shape-rendering:crispEdges;"/>
<rect x="0" y="49.199999999999996" width="16.4" height="16.4" style="fill:#000000;shape-rendering:crispEdges;"/>
<rect x="32.8" y="49.199999999999996" width="16.4" height="16.4" style="fill:#000000;shape-rendering:crispEdges;"/>
<rect x="49.199999999999996" y="49.199999999999996" width="16.4" height="16.4" style="fill:#000000;shape-rendering:crispEdges;"/>
<rect x="65.6" y="49.199999999999996" width="16.4" height="16.4" style="fill:#000000;shape-rendering:crispEdges;"/>
<rect x="98.39999999999999" y="49.199999999999996" width="16.4" height="16.4" style="fill:#000000;shape-rendering:crispEdges;"/>
<rect x="147.6" y="49.199999999999996" width="16.4" height="16.4" style="fill:#000000;shape-rendering:crispEdges;"/>
<rect x="164" y="49.199999999999996" width="16.4" height="16.4" style="fill:#000000;shape-rendering:crispEdges;"/>
<rect x="180.39999999999998" y="49.199999999999996" width="16.4" height="16.4" style="fill:#000000;shape-rendering:crispEdges;"/>
<rect x="196.79999999999998" y="49.199999999999996" width="16.4" height="16.4" style="fill:#000000;shape-rendering:crispEdges;"/>
<rect x="229.59999999999997" y="49.199999999999996" width="16.4" height="16.4" style="fill:#000000;shape-rendering:crispEdges;"/>
<rect x="262.4" y="49.199999999999996" width="16.4" height="16.4" style="fill:#000000;shape-rendering:crispEdges;"/>
<rect x="295.2" y="49.199999999999996" width="16.4" height="16.4" style="fill:#000000;shape-rendering:crispEdges;"/>
<rect x="328" y="49.199999999999996" width="16.4" height="16.4" style="fill:#000000;shape-rendering:crispEdges;"/>
<rect x="344.4" y="49.199999999999996" width="16.4" height="16.4" style="fill:#000000;shape-rendering:crispEdges;"/>
<rect x="360.79999999999995" y="49.199999999999996" width="16.4" height="16.4" style="fill:#000000;shape-rendering:crispEdges;"/>
<rect x="393.59999999999997" y="49.199999999999996" width="16.4" height="16.4" style="fill:#000000;shape-rendering:crispEdges;"/>
<rect x="0" y="65.6" width="16.4" height="16.4" style="fill:#000000;shape-rendering:crispEdges;"/>
<rect x="32.8" y="65.6" width="16.4" height="16.4" style="fill:#000000;shape-rendering:crispEdges;"/>
<rect x="49.199999999999996" y="65.6" width="16.4" height="16.4" style="fill:#000000;shape-rendering:crispEdges;"/>
<rect x="65.6" y="65.6" width="16.4" height="16.4" style="fill:#000000;shape-rendering:crispEdges;"/>
<rect x="98.39999999999999" y="65.6" width="16.4" height="16.4" style="fill:#000000;shape-rendering:crispEdges;"/>
<rect x="164" y="65.6" width="16.4" height="16.4" style="fill:#000000;shape-rendering:crispEdges;"/>
<rect x="180.39999999999998" y="65.6" width="16.4" height="16.4" style="fill:#000000;shape-rendering:crispEdges;"/>
<rect x="196.79999999999998" y="65.6" width="16.4" height="16.4" style="fill:#000000;shape-rendering:crispEdges;"/>
<rect x="213.2" y="65.6" width="16.4" height="16.4" style="fill:#000000;shape-rendering:crispEdges;"/>
<rect x="229.59999999999997" y="65.6" width="16.4" height="16.4" style="fill:#000000;shape-rendering:crispEdges;"/>
<rect x="262.4" y="65.6" width="16.4" height="16.4" style="fill:#000000;shape-rendering:crispEdges;"/>
<rect x="295.2" y="65.6" width="16.4" height="16.4" style="fill:#000000;shape-rendering:crispEdges;"/>
<rect x="328" y="65.6" width="16.4" height="16.4" style="fill:#000000;shape-rendering:crispEdges;"/>
<rect x="344.4" y="65.6" width="16.4" height="16.4" style="fill:#000000;shape-rendering:crispEdges;"/>
<rect x="360.79999999999995" y="65.6" width="16.4" height="16.4" style="fill:#000000;shape-rendering:crispEdges;"/>
<rect x="393.59999999999997" y="65.6" width="16.4" height="16.4" style="fill:#000000;shape-rendering:crispEdges;"/>
<rect x="0" y="82" width="16.4" height="16.4" style="fill:#000000;shape-rendering:crispEdges;"/>
<rect x="98.39999999999999" y="82" width="16.4" height="16.4" style="fill:#000000;shape-rendering:crispEdges;"/>
<rect x="131.2" y="82" width="16.4" height="16.4" style="fill:#000000;shape-rendering:crispEdges;"/>
<rect x="147.6" y="82" width="16.4" height="16.4" style="fill:#000000;shape-rendering:crispEdges;"/>
<rect x="164" y="82" width="16.4" height="16.4" style="fill:#000000;shape-rendering:crispEdges;"/>
<rect x="196.79999999999998" y="82" width="16.4" height="16.4" style="fill:#000000;shape-rendering:crispEdges;"/>
<rect x="295.2" y="82" width="16.4" height="16.4" style="fill:#000000;shape-rendering:crispEdges;"/>
<rect x="393.59999999999997" y="82" width="16.4" height="16.4" style="fill:#000000;shape-rendering:crispEdges;"/>
<rect x="0" y="98.39999999999999" width="16.4" height="16.4" style="fill:#000000;shape-rendering:crispEdges;"/>
<rect x="16.4" y="98.39999999999999" width="16.4" height="16.4" style="fill:#000000;shape-rendering:crispEdges;"/>
<rect x="32.8" y="98.39999999999999" width="16.4" height="16.4" style="fill:#000000;shape-rendering:crispEdges;"/>
<rect x="49.199999999999996" y="98.39999999999999" width="16.4" height="16.4" style="fill:#000000;shape-rendering:crispEdges;"/>
<rect x="65.6" y="98.39999999999999" width="16.4" height="16.4" style="fill:#000000;shape-rendering:crispEdges;"/>
<rect x="82" y="98.39999999999999" width="16.4" height="16.4" style="fill:#000000;shape-rendering:crispEdges;"/>
<rect x="98.39999999999999" y="98.39999999999999" width="16.4" height="16.4" style="fill:#000000;shape-rendering:crispEdges;"/>
<rect x="131.2" y="98.39999999999999" width="16.4" height="16.4" style="fill:#000000;shape-rendering:crispEdges;"/>
<rect x="164" y="98.39999999999999" width="16.4" height="16.4" style="fill:#000000;shape-rendering:crispEdges;"/>
<rect x="196.79999999999998" y="98.39999999999999" width="16.4" height="16.4" style="fill:#000000;shape-rendering:crispEdges;"/>
<rect x="229.59999999999997" y="98.39999999999999" width="16.4" height="16.4" style="fill:#000000;shape-rendering:crispEdges;"/>
<rect x="262.4" y="98.39999999999999" width="16.4" height="16.4" style="fill:#000000;shape-rendering:crispEdges;"/>
<rect x="295.2" y="98.39999999999999" width="16.4" height="16.4" style="fill:#000000;shape-rendering:crispEdges;"/>
<rect x="311.59999999999997" y="98.39999999999999" width="16.4" height="16.4" style="fill:#000000;shape-rendering:crispEdges;"/>
<rect x="328" y="98.39999999999999" width="16.4" height="16.4" style="fill:#000000;shape-rendering:crispEdges;"/>
<rect x="344.4" y="98.39999999999999" width="16.4" height="16.4" style="fill:#000000;shape-rendering:crispEdges;"/>
<rect x="360.79999999999995" y="98.39999999999999" width="16.4" height="16.4" style="fill:#000000;shape-rendering:crispEdges;"/>
<rect x="377.2" y="98.39999999999999" width="16.4" height="16.4" style="fill:#000000;shape-rendering:crispEdges;"/>
<rect x="393.59999999999997" y="98.39999999999999" width="16.4" height="16.4" style="fill:#000000;shape-rendering:crispEdges;"/>
<rect x="147.6" y="114.79999999999998" width="16.4" height="16.4" style="fill:#000000;shape-rendering:crispEdges;"/>
<rect x="196.79999999999998" y="114.79999999999998" width="16.4" height="16.4" style="fill:#000000;shape-rendering:crispEdges;"/>
<rect x="262.4" y="114.79999999999998" width="16.4" height="16.4" style="fill:#000000;shape-rendering:crispEdges;"/>
<rect x="0" y="131.2" width="16.4" height="16.4" style="fill:#000000;shape-rendering:crispEdges;"/>
<rect x="16.4" y="131.2" width="16.4" height="16.4" style="fill:#000000;shape-rendering:crispEdges;"/>
<rect x="65.6" y="131.2" width="16.4" height="16.4" style="fill:#000000;shape-rendering:crispEdges;"/>
<rect x="82" y="131.2" width="16.4" height="16.4" style="fill:#000000;shape-rendering:crispEdges;"/>
<rect x="98.39999999999999" y="131.2" width="16.4" height="16.4" style="fill:#000000;shape-rendering:crispEdges;"/>
<rect x="114.79999999999998" y="131.2" width="16.4" height="16.4" style="fill:#000000;shape-rendering:crispEdges;"/>
<rect x="131.2" y="131.2" width="16.4" height="16.4" style="fill:#000000;shape-rendering:crispEdges;"/>
<rect x="147.6" y="131.2" width="16.4" height="16.4" style="fill:#000000;shape-rendering:crispEdges;"/>
<rect x="164" y="131.2" width="16.4" height="16.4" style="fill:#000000;shape-rendering:crispEdges;"/>
<rect x="229.59999999999997" y="131.2" width="16.4" height="16.4" style="fill:#000000;shape-rendering:crispEdges;"/>
<rect x="262.4" y="131.2" width="16.4" height="16.4" style="fill:#000000;shape-rendering:crispEdges;"/>
<rect x="278.79999999999995" y="131.2" width="16.4" height="16.4" style="fill:#000000;shape-rendering:crispEdges;"/>
<rect x="311.59999999999997" y="131.2" width="16.4" height="16.4" style="fill:#000000;shape-rendering:crispEdges;"/>
<rect x="360.79999999999995" y="131.2" width="16.4" height="16.4" style="fill:#000000;shape-rendering:crispEdges;"/>
<rect x="377.2" y="131.2" width="16.4" height="16.4" style="fill:#000000;shape-rendering:crispEdges;"/>
<rect x="393.59999999999997" y="131.2" width="16.4" height="16.4" style="fill:#000000;shape-rendering:crispEdges;"/>
<rect x="0" y="147.6" width="16.4" height="16.4" style="fill:#000000;shape-rendering:crispEdges;"/>
<rect x="32.8" y="147.6" width="16.4" height="16.4" style="fill:#000000;shape-rendering:crispEdges;"/>
<rect x="82" y="147.6" width="16.4" height="16.4" style="fill:#000000;shape-rendering:crispEdges;"/>
<rect x="114.79999999999998" y="147.6" width="16.4" height="16.4" style="fill:#000000;shape-rendering:crispEdges;"/>
<rect x="131.2" y="147.6" width="16.4" height="16.4" style="fill:#000000;shape-rendering:crispEdges;"/>
<rect x="164" y="147.6" width="16.4" height="16.4" style="fill:#000000;shape-rendering:crispEdges;"/>
<rect x="196.79999999999998" y="147.6" width="16.4" height="16.4" style="fill:#000000;shape-rendering:crispEdges;"/>
<rect x="229.59999999999997" y="147.6" width="16.4" height="16.4" style="fill:#000000;shape-rendering:crispEdges;"/>
<rect x="262.4" y="147.6" width="16.4" height="16.4" style="fill:#000000;shape-rendering:crispEdges;"/>
<rect x="278.79999999999995" y="147.6" width="16.4" height="16.4" style="fill:#000000;shape-rendering:crispEdges;"/>
<rect x="295.2" y="147.6" width="16.4" height="16.4" style="fill:#000000;shape-rendering:crispEdges;"/>
<rect x="311.59999999999997" y="147.6" width="16.4" height="16.4" style="fill:#000000;shape-rendering:crispEdges;"/>
<rect x="377.2" y="147.6" width="16.4" height="16.4" style="fill:#000000;shape-rendering:crispEdges;"/>
<rect x="393.59999999999997" y="147.6" width="16.4" height="16.4" style="fill:#000000;shape-rendering:crispEdges;"/>
<rect x="0" y="164" width="16.4" height="16.4" style="fill:#000000;shape-rendering:crispEdges;"/>
<rect x="82" y="164" width="16.4" height="16.4" style="fill:#000000;shape-rendering:crispEdges;"/>
<rect x="98.39999999999999" y="164" width="16.4" height="16.4" style="fill:#000000;shape-rendering:crispEdges;"/>
<rect x="164" y="164" width="16.4" height="16.4" style="fill:#000000;shape-rendering:crispEdges;"/>
<rect x="180.39999999999998" y="164" width="16.4" height="16.4" style="fill:#000000;shape-rendering:crispEdges;"/>
<rect x="196.79999999999998" y="164" width="16.4" height="16.4" style="fill:#000000;shape-rendering:crispEdges;"/>
<rect x="213.2" y="164" width="16.4" height="16.4" style="fill:#000000;shape-rendering:crispEdges;"/>
<rect x="229.59999999999997" y="164" width="16.4" height="16.4" style="fill:#000000;shape-rendering:crispEdges;"/>
<rect x="262.4" y="164" width="16.4" height="16.4" style="fill:#000000;shape-rendering:crispEdges;"/>
<rect x="311.59999999999997" y="164" width="16.4" height="16.4" style="fill:#000000;shape-rendering:crispEdges;"/>
<rect x="328" y="164" width="16.4" height="16.4" style="fill:#000000;shape-rendering:crispEdges;"/>
<rect x="360.79999999999995" y="164" width="16.4" height="16.4" style="fill:#000000;shape-rendering:crispEdges;"/>
<rect x="393.59999999999997" y="164" width="16.4" height="16.4" style="fill:#000000;shape-rendering:crispEdges;"/>
<rect x="0" y="180.39999999999998" width="16.4" height="16.4" style="fill:#000000;shape-rendering:crispEdges;"/>
<rect x="16.4" y="180.39999999999998" width="16.4" height="16.4" style="fill:#000000;shape-rendering:crispEdges;"/>
<rect x="49.199999999999996" y="180.39999999999998" width="16.4" height="16.4" style="fill:#000000;shape-rendering:crispEdges;"/>
<rect x="65.6" y="180.39999999999998" width="16.4" height="16.4" style="fill:#000000;shape-rendering:crispEdges;"/>
<rect x="131.2" y="180.39999999999998" width="16.4" height="16.4" style="fill:#000000;shape-rendering:crispEdges;"/>
<rect x="180.39999999999998" y="180.39999999999998" width="16.4" height="16.4" style="fill:#000000;shape-rendering:crispEdges;"/>
<rect x="229.59999999999997" y="180.39999999999998" width="16.4" height="16.4" style="fill:#000000;shape-rendering:crispEdges;"/>
<rect x="262.4" y="180.39999999999998" width="16.4" height="16.4" style="fill:#000000;shape-rendering:crispEdges;"/>
<rect x="311.59999999999997" y="180.39999999999998" width="16.4" height="16.4" style="fill:#000000;shape-rendering:crispEdges;"/>
<rect x="360.79999999999995" y="180.39999999999998" width="16.4" height="16.4" style="fill:#000000;shape-rendering:crispEdges;"/>
<rect x="393.59999999999997" y="180.39999999999998" width="16.4" height="16.4" style="fill:#000000;shape-rendering:crispEdges;"/>
<rect x="49.199999999999996" y="196.79999999999998" width="16.4" height="16.4" style="fill:#000000;shape-rendering:crispEdges;"/>
<rect x="65.6" y="196.79999999999998" width="16.4" height="16.4" style="fill:#000000;shape-rendering:crispEdges;"/>
<rect x="82" y="196.79999999999998" width="16.4" height="16.4" style="fill:#000000;shape-rendering:crispEdges;"/>
<rect x="98.39999999999999" y="196.79999999999998" width="16.4" height="16.4" style="fill:#000000;shape-rendering:crispEdges;"/>
<rect x="131.2" y="196.79999999999998" width="16.4" height="16.4" style="fill:#000000;shape-rendering:crispEdges;"/>
<rect x="147.6" y="196.79999999999998" width="16.4" height="16.4" style="fill:#000000;shape-rendering:crispEdges;"/>
<rect x="164" y="196.79999999999998" width="16.4" height="16.4" style="fill:#000000;shape-rendering:crispEdges;"/>
<rect x="180.39999999999998" y="196.79999999999998" width="16.4" height="16.4" style="fill:#000000;shape-rendering:crispEdges;"/>
<rect x="262.4" y="196.79999999999998" width="16.4" height="16.4" style="fill:#000000;shape-rendering:crispEdges;"/>
<rect x="278.79999999999995" y="196.79999999999998" width="16.4" height="16.4" style="fill:#000000;shape-rendering:crispEdges;"/>
<rect x="295.2" y="196.79999999999998" width="16.4" height="16.4" style="fill:#000000;shape-rendering:crispEdges;"/>
<rect x="311.59999999999997" y="196.79999999999998" width="16.4" height="16.4" style="fill:#000000;shape-rendering:crispEdges;"/>
<rect x="328" y="196.79999999999998" width="16.4" height="16.4" style="fill:#000000;shape-rendering:crispEdges;"/>
<rect x="393.59999999999997" y="196.79999999999998" width="16.4" height="16.4" style="fill:#000000;shape-rendering:crispEdges;"/>
<rect x="0" y="213.2" width="16.4" height="16.4" style="fill:#000000;shape-rendering:crispEdges;"/>
<rect x="16.4" y="213.2" width="16.4" height="16.4" style="fill:#000000;shape-rendering:crispEdges;"/>
<rect x="32.8" y="213.2" width="16.4" height="16.4" style="fill:#000000;shape-rendering:crispEdges;"/>
<rect x="49.199999999999996" y="213.2" width="16.4" height="16.4" style="fill:#000000;shape-rendering:crispEdges;"/>
<rect x="82" y="213.2" width="16.4" height="16.4" style="fill:#000000;shape-rendering:crispEdges;"/>
<rect x="147.6" y="213.2" width="16.4" height="16.4" style="fill:#000000;shape-rendering:crispEdges;"/>
<rect x="196.79999999999998" y="213.2" width="16.4" height="16.4" style="fill:#000000;shape-rendering:crispEdges;"/>
<rect x="213.2" y="213.2" width="16.4" height="16.4" style="fill:#000000;shape-rendering:crispEdges;"/>
<rect x="229.59999999999997" y="213.2" width="16.4" height="16.4" style="fill:#000000;shape-rendering:crispEdges;"/>
<rect x="295.2" y="213.2" width="16.4" height="16.4" style="fill:#000000;shape-rendering:crispEdges;"/>
<rect x="360.79999999999995" y="213.2" width="16.4" height="16.4" style="fill:#000000;shape-rendering:crispEdges;"/>
<rect x="393.59999999999997" y="213.2" width="16.4" height="16.4" style="fill:#000000;shape-rendering:crispEdges;"/>
<rect x="0" y="229.59999999999997" width="16.4" height="16.4" style="fill:#000000;shape-rendering:crispEdges;"/>
<rect x="49.199999999999996" y="229.59999999999997" width="16.4" height="16.4" style="fill:#000000;shape-rendering:crispEdges;"/>
<rect x="65.6" y="229.59999999999997" width="16.4" height="16.4" style="fill:#000000;shape-rendering:crispEdges;"/>
<rect x="82" y="229.59999999999997" width="16.4" height="16.4" style="fill:#000000;shape-rendering:crispEdges;"/>
<rect x="98.39999999999999" y="229.59999999999997" width="16.4" height="16.4" style="fill:#000000;shape-rendering:crispEdges;"/>
<rect x="131.2" y="229.59999999999997" width="16.4" height="16.4" style="fill:#000000;shape-rendering:crispEdges;"/>
<rect x="180.39999999999998" y="229.59999999999997" width="16.4" height="16.4" style="fill:#000000;shape-rendering:crispEdges;"/>
<rect x="262.4" y="229.59999999999997" width="16.4" height="16.4" style="fill:#000000;shape-rendering:crispEdges;"/>
<rect x="278.79999999999995" y="229.59999999999997" width="16.4" height="16.4" style="fill:#000000;shape-rendering:crispEdges;"/>
<rect x="311.59999999999997" y="229.59999999999997" width="16.4" height="16.4" style="fill:#000000;shape-rendering:crispEdges;"/>
<rect x="328" y="229.59999999999997" width="16.4" height="16.4" style="fill:#000000;shape-rendering:crispEdges;"/>
<rect x="344.4" y="229.59999999999997" width="16.4" height="16.4" style="fill:#000000;shape-rendering:crispEdges;"/>
<rect x="49.199999999999996" y="245.99999999999997" width="16.4" height="16.4" style="fill:#000000;shape-rendering:crispEdges;"/>
<rect x="114.79999999999998" y="245.99999999999997" width="16.4" height="16.4" style="fill:#000000;shape-rendering:crispEdges;"/>
<rect x="147.6" y="245.99999999999997" width="16.4" height="16.4" style="fill:#000000;shape-rendering:crispEdges;"/>
<rect x="164" y="245.99999999999997" width="16.4" height="16.4" style="fill:#000000;shape-rendering:crispEdges;"/>
<rect x="213.2" y="245.99999999999997" width="16.4" height="16.4" style="fill:#000000;shape-rendering:crispEdges;"/>
<rect x="229.59999999999997" y="245.99999999999997" width="16.4" height="16.4" style="fill:#000000;shape-rendering:crispEdges;"/>
<rect x="245.99999999999997" y="245.99999999999997" width="16.4" height="16.4" style="fill:#000000;shape-rendering:crispEdges;"/>
<rect x="311.59999999999997" y="245.99999999999997" width="16.4" height="16.4" style="fill:#000000;shape-rendering:crispEdges;"/>
<rect x="328" y="245.99999999999997" width="16.4" height="16.4" style="fill:#000000;shape-rendering:crispEdges;"/>
<rect x="344.4" y="245.99999999999997" width="16.4" height="16.4" style="fill:#000000;shape-rendering:crispEdges;"/>
<rect x="65.6" y="262.4" width="16.4" height="16.4" style="fill:#000000;shape-rendering:crispEdges;"/>
<rect x="98.39999999999999" y="262.4" width="16.4" height="16.4" style="fill:#000000;shape-rendering:crispEdges;"/>
<rect x="114.79999999999998" y="262.4" width="16.4" height="16.4" style="fill:#000000;shape-rendering:crispEdges;"/>
<rect x="131.2" y="262.4" width="16.4" height="16.4" style="fill:#000000;shape-rendering:crispEdges;"/>
<rect x="147.6" y="262.4" width="16.4" height="16.4" style="fill:#000000;shape-rendering:crispEdges;"/>
<rect x="196.79999999999998" y="262.4" width="16.4" height="16.4" style="fill:#000000;shape-rendering:crispEdges;"/>
<rect x="213.2" y="262.4" width="16.4" height="16.4" style="fill:#000000;shape-rendering:crispEdges;"/>
<rect x="229.59999999999997" y="262.4" width="16.4" height="16.4" style="fill:#000000;shape-rendering:crispEdges;"/>
<rect x="262.4" y="262.4" width="16.4" height="16.4" style="fill:#000000;shape-rendering:crispEdges;"/>
<rect x="278.79999999999995" y="262.4" width="16.4" height="16.4" style="fill:#000000;shape-rendering:crispEdges;"/>
<rect x="295.2" y="262.4" width="16.4" height="16.4" style="fill:#000000;shape-rendering:crispEdges;"/>
<rect x="311.59999999999997" y="262.4" width="16.4" height="16.4" style="fill:#000000;shape-rendering:crispEdges;"/>
<rect x="328" y="262.4" width="16.4" height="16.4" style="fill:#000000;shape-rendering:crispEdges;"/>
<rect x="360.79999999999995" y="262.4" width="16.4" height="16.4" style="fill:#000000;shape-rendering:crispEdges;"/>
<rect x="377.2" y="262.4" width="16.4" height="16.4" style="fill:#000000;shape-rendering:crispEdges;"/>
<rect x="393.59999999999997" y="262.4" width="16.4" height="16.4" style="fill:#000000;shape-rendering:crispEdges;"/>
<rect x="131.2" y="278.79999999999995" width="16.4" height="16.4" style="fill:#000000;shape-rendering:crispEdges;"/>
<rect x="229.59999999999997" y="278.79999999999995" width="16.4" height="16.4" style="fill:#000000;shape-rendering:crispEdges;"/>
<rect x="262.4" y="278.79999999999995" width="16.4" height="16.4" style="fill:#000000;shape-rendering:crispEdges;"/>
<rect x="328" y="278.79999999999995" width="16.4" height="16.4" style="fill:#000000;shape-rendering:crispEdges;"/>
<rect x="344.4" y="278.79999999999995" width="16.4" height="16.4" style="fill:#000000;shape-rendering:crispEdges;"/>
<rect x="377.2" y="278.79999999999995" width="16.4" height="16.4" style="fill:#000000;shape-rendering:crispEdges;"/>
<rect x="0" y="295.2" width="16.4" height="16.4" style="fill:#000000;shape-rendering:crispEdges;"/>
<rect x="16.4" y="295.2" width="16.4" height="16.4" style="fill:#000000;shape-rendering:crispEdges;"/>
<rect x="32.8" y="295.2" width="16.4" height="16.4" style="fill:#000000;shape-rendering:crispEdges;"/>
<rect x="49.199999999999996" y="295.2" width="16.4" height="16.4" style="fill:#000000;shape-rendering:crispEdges;"/>
<rect x="65.6" y="295.2" width="16.4" height="16.4" style="fill:#000000;shape-rendering:crispEdges;"/>
<rect x="82" y="295.2" width="16.4" height="16.4" style="fill:#000000;shape-rendering:crispEdges;"/>
<rect x="98.39999999999999" y="295.2" width="16.4" height="16.4" style="fill:#000000;shape-rendering:crispEdges;"/>
<rect x="131.2" y="295.2" width="16.4" height="16.4" style="fill:#000000;shape-rendering:crispEdges;"/>
<rect x="147.6" y="295.2" width="16.4" height="16.4" style="fill:#000000;shape-rendering:crispEdges;"/>
<rect x="180.39999999999998" y="295.2" width="16.4" height="16.4" style="fill:#000000;shape-rendering:crispEdges;"/>
<rect x="196.79999999999998" y="295.2" width="16.4" height="16.4" style="fill:#000000;shape-rendering:crispEdges;"/>
<rect x="213.2" y="295.2" width="16.4" height="16.4" style="fill:#000000;shape-rendering:crispEdges;"/>
<rect x="245.99999999999997" y="295.2" width="16.4" height="16.4" style="fill:#000000;shape-rendering:crispEdges;"/>
<rect x="262.4" y="295.2" width="16.4" height="16.4" style="fill:#000000;shape-rendering:crispEdges;"/>
<rect x="295.2" y="295.2" width="16.4" height="16.4" style="fill:#000000;shape-rendering:crispEdges;"/>
<rect x="328" y="295.2" width="16.4" height="16.4" style="fill:#000000;shape-rendering:crispEdges;"/>
<rect x="393.59999999999997" y="295.2" width="16.4" height="16.4" style="fill:#000000;shape-rendering:crispEdges;"/>
<rect x="0" y="311.59999999999997" width="16.4" height="16.4" style="fill:#000000;shape-rendering:crispEdges;"/>
<rect x="98.39999999999999" y="311.59999999999997" width="16.4" height="16.4" style="fill:#000000;shape-rendering:crispEdges;"/>
<rect x="131.2" y="311.59999999999997" width="16.4" height="16.4" style="fill:#000000;shape-rendering:crispEdges;"/>
<rect x="164" y="311.59999999999997" width="16.4" height="16.4" style="fill:#000000;shape-rendering:crispEdges;"/>
<rect x="213.2" y="311.59999999999997" width="16.4" height="16.4" style="fill:#000000;shape-rendering:crispEdges;"/>
<rect x="245.99999999999997" y="311.59999999999997" width="16.4" height="16.4" style="fill:#000000;shape-rendering:crispEdges;"/>
<rect x="262.4" y="311.59999999999997" width="16.4" height="16.4" style="fill:#000000;shape-rendering:crispEdges;"/>
<rect x="328" y="311.59999999999997" width="16.4" height="16.4" style="fill:#000000;shape-rendering:crispEdges;"/>
<rect x="360.79999999999995" y="311.59999999999997" width="16.4" height="16.4" style="fill:#000000;shape-rendering:crispEdges;"/>
<rect x="377.2" y="311.59999999999997" width="16.4" height="16.4" style="fill:#000000;shape-rendering:crispEdges;"/>
<rect x="0" y="328" width="16.4" height="16.4" style="fill:#000000;shape-rendering:crispEdges;"/>
<rect x="32.8" y="328" width="16.4" height="16.4" style="fill:#000000;shape-rendering:crispEdges;"/>
<rect x="49.199999999999996" y="328" width="16.4" height="16.4" style="fill:#000000;shape-rendering:crispEdges;"/>
<rect x="65.6" y="328" width="16.4" height="16.4" style="fill:#000000;shape-rendering:crispEdges;"/>
<rect x="98.39999999999999" y="328" width="16.4" height="16.4" style="fill:#000000;shape-rendering:crispEdges;"/>
<rect x="131.2" y="328" width="16.4" height="16.4" style="fill:#000000;shape-rendering:crispEdges;"/>
<rect x="180.39999999999998" y="328" width="16.4" height="16.4" style="fill:#000000;shape-rendering:crispEdges;"/>
<rect x="245.99999999999997" y="328" width="16.4" height="16.4" style="fill:#000000;shape-rendering:crispEdges;"/>
<rect x="262.4" y="328" width="16.4" height="16.4" style="fill:#000000;shape-rendering:crispEdges;"/>
<rect x="278.79999999999995" y="328" width="16.4" height="16.4" style="fill:#000000;shape-rendering:crispEdges;"/>
<rect x="295.2" y="328" width="16.4" height="16.4" style="fill:#000000;shape-rendering:crispEdges;"/>
<rect x="311.59999999999997" y="328" width="16.4" height="16.4" style="fill:#000000;shape-rendering:crispEdges;"/>
<rect x="328" y="328" width="16.4" height="16.4" style="fill:#000000;shape-rendering:crispEdges;"/>
<rect x="344.4" y="328" width="16.4" height="16.4" style="fill:#000000;shape-rendering:crispEdges;"/>
<rect x="360.79999999999995" y="328" width="16.4" height="16.4" style="fill:#000000;shape-rendering:crispEdges;"/>
<rect x="377.2" y="328" width="16.4" height="16.4" style="fill:#000000;shape-rendering:crispEdges;"/>
<rect x="0" y="344.4" width="16.4" height="16.4" style="fill:#000000;shape-rendering:crispEdges;"/>
<rect x="32.8" y="344.4" width="16.4" height="16.4" style="fill:#000000;shape-rendering:crispEdges;"/>
<rect x="49.199999999999996" y="344.4" width="16.4" height="16.4" style="fill:#000000;shape-rendering:crispEdges;"/>
<rect x="65.6" y="344.4" width="16.4" height="16.4" style="fill:#000000;shape-rendering:crispEdges;"/>
<rect x="98.39999999999999" y="344.4" width="16.4" height="16.4" style="fill:#000000;shape-rendering:crispEdges;"/>
<rect x="147.6" y="344.4" width="16.4" height="16.4" style="fill:#000000;shape-rendering:crispEdges;"/>
<rect x="164" y="344.4" width="16.4" height="16.4" style="fill:#000000;shape-rendering:crispEdges;"/>
<rect x="180.39999999999998" y="344.4" width="16.4" height="16.4" style="fill:#000000;shape-rendering:crispEdges;"/>
<rect x="229.59999999999997" y="344.4" width="16.4" height="16.4" style="fill:#000000;shape-rendering:crispEdges;"/>
<rect x="245.99999999999997" y="344.4" width="16.4" height="16.4" style="fill:#000000;shape-rendering:crispEdges;"/>
<rect x="360.79999999999995" y="344.4" width="16.4" height="16.4" style="fill:#000000;shape-rendering:crispEdges;"/>
<rect x="393.59999999999997" y="344.4" width="16.4" height="16.4" style="fill:#000000;shape-rendering:crispEdges;"/>
<rect x="0" y="360.79999999999995" width="16.4" height="16.4" style="fill:#000000;shape-rendering:crispEdges;"/>
<rect x="32.8" y="360.79999999999995" width="16.4" height="16.4" style="fill:#000000;shape-rendering:crispEdges;"/>
<rect x="49.199999999999996" y="360.79999999999995" width="16.4" height="16.4" style="fill:#000000;shape-rendering:crispEdges;"/>
<rect x="65.6" y="360.79999999999995" width="16.4" height="16.4" style="fill:#000000;shape-rendering:crispEdges;"/>
<rect x="98.39999999999999" y="360.79999999999995" width="16.4" height="16.4" style="fill:#000000;shape-rendering:crispEdges;"/>
<rect x="164" y="360.79999999999995" width="16.4" height="16.4" style="fill:#000000;shape-rendering:crispEdges;"/>
<rect x="229.59999999999997" y="360.79999999999995" width="16.4" height="16.4" style="fill:#000000;shape-rendering:crispEdges;"/>
<rect x="344.4" y="360.79999999999995" width="16.4" height="16.4" style="fill:#000000;shape-rendering:crispEdges;"/>
<rect x="0" y="377.2" width="16.4" height="16.4" style="fill:#000000;shape-rendering:crispEdges;"/>
<rect x="98.39999999999999" y="377.2" width="16.4" height="16.4" style="fill:#000000;shape-rendering:crispEdges;"/>
<rect x="131.2" y="377.2" width="16.4" height="16.4" style="fill:#000000;shape-rendering:crispEdges;"/>
<rect x="147.6" y="377.2" width="16.4" height="16.4" style="fill:#000000;shape-rendering:crispEdges;"/>
<rect x="213.2" y="377.2" width="16.4" height="16.4" style="fill:#000000;shape-rendering:crispEdges;"/>
<rect x="262.4" y="377.2" width="16.4" height="16.4" style="fill:#000000;shape-rendering:crispEdges;"/>
<rect x="328" y="377.2" width="16.4" height="16.4" style="fill:#000000;shape-rendering:crispEdges;"/>
<rect x="344.4" y="377.2" width="16.4" height="16.4" style="fill:#000000;shape-rendering:crispEdges;"/>
<rect x="360.79999999999995" y="377.2" width="16.4" height="16.4" style="fill:#000000;shape-rendering:crispEdges;"/>
<rect x="0" y="393.59999999999997" width="16.4" height="16.4" style="fill:#000000;shape-rendering:crispEdges;"/>
<rect x="16.4" y="393.59999999999997" width="16.4" height="16.4" style="fill:#000000;shape-rendering:crispEdges;"/>
<rect x="32.8" y="393.59999999999997" width="16.4" height="16.4" style="fill:#000000;shape-rendering:crispEdges;"/>
<rect x="49.199999999999996" y="393.59999999999997" width="16.4" height="16.4" style="fill:#000000;shape-rendering:crispEdges;"/>
<rect x="65.6" y="393.59999999999997" width="16.4" height="16.4" style="fill:#000000;shape-rendering:crispEdges;"/>
<rect x="82" y="393.59999999999997" width="16.4" height="16.4" style="fill:#000000;shape-rendering:crispEdges;"/>
<rect x="98.39999999999999" y="393.59999999999997" width="16.4" height="16.4" style="fill:#000000;shape-rendering:crispEdges;"/>
<rect x="131.2" y="393.59999999999997" width="16.4" height="16.4" style="fill:#000000;shape-rendering:crispEdges;"/>
<rect x="147.6" y="393.59999999999997" width="16.4" height="16.4" style="fill:#000000;shape-rendering:crispEdges;"/>
<rect x="164" y="393.59999999999997" width="16.4" height="16.4" style="fill:#000000;shape-rendering:crispEdges;"/>
<rect x="196.79999999999998" y="393.59999999999997" width="16.4" height="16.4" style="fill:#000000;shape-rendering:crispEdges;"/>
<rect x="213.2" y="393.59999999999997" width="16.4" height="16.4" style="fill:#000000;shape-rendering:crispEdges;"/>
<rect x="229.59999999999997" y="393.59999999999997" width="16.4" height="16.4" style="fill:#000000;shape-rendering:crispEdges;"/>
<rect x="278.79999999999995" y="393.59999999999997" width="16.4" height="16.4" style="fill:#000000;shape-rendering:crispEdges;"/>
<rect x="295.2" y="393.59999999999997" width="16.4" height="16.4" style="fill:#000000;shape-rendering:crispEdges;"/>
<rect x="360.79999999999995" y="393.59999999999997" width="16.4" height="16.4" style="fill:#000000;shape-rendering:crispEdges;"/>
<rect x="393.59999999999997" y="393.59999999999997" width="16.4" height="16.4" style="fill:#000000;shape-rendering:crispEdges;"/>
</svg>